<?xml version="1.0" encoding="UTF-8" standalone="no"?>
<!-- Created with Inkscape (http://www.inkscape.org/) -->

<svg
   width="32.966064"
   height="33.016663"
   viewBox="0 0 32.966064 33.016663"
   version="1.1"
   id="svg1"
   xml:space="preserve"
   xmlns="http://www.w3.org/2000/svg"
   xmlns:svg="http://www.w3.org/2000/svg"><defs
     id="defs1"><clipPath
       clipPathUnits="userSpaceOnUse"
       id="clipPath4"><rect
         style="opacity:0.446083;fill:#1a1a1a;stroke-width:0.894629"
         id="rect4"
         width="33.450634"
         height="33.3111"
         x="1099.8191"
         y="450.83127" /></clipPath></defs><g
     id="layer1"
     transform="translate(-1094.33,-452.67885)"><rect
       style="opacity:1;fill:#ffffff"
       id="rect5"
       width="27.717878"
       height="26.403667"
       x="1096.8872"
       y="455.19446" /><g
       id="g3"
       clip-path="url(#clipPath4)"
       transform="translate(-5.9736806,1.553157)"><g
         id="g2"><g
           style="fill:none"
           id="g1"
           transform="translate(1100.3036,446.12571)"><path
             d="M 4.97257,5.04929 C 3.75011,5.2549 2.64439,5.83061 1.75158,6.7216 1.09227,7.38641 0.810695,7.79763 0.446703,8.65434 -0.0271746,9.74408 2.96534e-4,9.045 2.96534e-4,21.4502 c 0,12.1379 -0.013735534,11.6582 0.377728466,12.6862 0.267843,0.7197 0.679915,1.3639 1.263675,1.9739 0.831,0.8704 1.72381,1.3913 2.90507,1.7066 l 0.57003,0.1507 10.9541,0.0275 c 7.7949,0.0137 11.1533,0 11.634,-0.0549 1.4285,-0.1645 2.5823,-0.7059 3.5713,-1.686 0.7348,-0.7265 1.1675,-1.4324 1.5246,-2.4947 L 33,33.1769 V 21.5256 9.8743 L 32.842,9.33286 C 32.2651,7.33843 30.768,5.83747 28.742,5.20007 L 28.1239,5.00817 16.7234,5.00132 C 10.4531,4.99446 5.16487,5.01502 4.97257,5.04929 Z M 12.2868,17.4065 c 2.3144,2.2206 4.1893,4.0643 4.1824,4.0917 -0.0137,0.0274 -1.9161,1.871 -4.2305,4.0985 L 8.02187,29.6472 6.92989,28.5986 c -0.5975,-0.5688 -1.09198,-1.076 -1.08511,-1.1103 0,-0.0411 1.39416,-1.3981 3.0905,-3.0156 1.68952,-1.6243 3.07682,-2.9677 3.08362,-2.9882 0,-0.0274 -1.3873,-1.3845 -3.09048,-3.0157 -1.69635,-1.6311 -3.09051,-2.9813 -3.09051,-3.0019 0,-0.0891 2.10155,-2.1315 2.17022,-2.1178 0.04808,0.0137 1.97106,1.8368 4.27867,4.0574 z m 14.9786,10.9728 v 1.2679 h -3.9833 -3.9833 v -1.2679 -1.2679 h 3.9833 3.9833 z"
             fill="#c92071"
             id="path1" /><path
             d="M 52.5802,35 H 43.6107 V 8.53086 h 9.1505 c 2.6279,0 4.8854,0.5299 6.7724,1.58974 1.8955,1.0511 3.3517,2.5633 4.3684,4.5364 1.0167,1.9731 1.5251,4.334 1.5251,7.0826 0,2.7572 -0.5127,5.1267 -1.538,7.1084 -1.0167,1.9817 -2.4858,3.5025 -4.4072,4.5623 C 57.5691,34.4701 55.2685,35 52.5802,35 Z m -4.1745,-4.1487 h 3.9419 c 1.8439,0 3.3819,-0.3361 4.614,-1.0081 1.2321,-0.6807 2.1584,-1.6931 2.7788,-3.0373 0.6203,-1.3527 0.9305,-3.0415 0.9305,-5.0663 0,-2.0248 -0.3102,-3.705 -0.9305,-5.0405 -0.6204,-1.3442 -1.538,-2.348 -2.7529,-3.0114 -1.2063,-0.6721 -2.7055,-1.0081 -4.4977,-1.0081 H 48.4057 Z M 69.4122,35 V 15.1481 h 4.6786 V 35 Z m 2.3522,-22.6694 c -0.741,0 -1.3786,-0.2455 -1.9128,-0.7367 -0.5342,-0.4997 -0.8013,-1.0985 -0.8013,-1.79645 0,-0.70653 0.2671,-1.30536 0.8013,-1.79649 0.5342,-0.49974 1.1718,-0.74961 1.9128,-0.74961 0.7496,0 1.3872,0.24987 1.9128,0.74961 0.5342,0.49113 0.8013,1.08996 0.8013,1.79649 0,0.69795 -0.2671,1.29675 -0.8013,1.79645 -0.5256,0.4912 -1.1632,0.7367 -1.9128,0.7367 z M 87.1715,42.858 c -1.6802,0 -3.1234,-0.2283 -4.3297,-0.685 -1.2063,-0.448 -2.1756,-1.0512 -2.908,-1.8094 -0.7324,-0.7582 -1.2407,-1.5983 -1.5251,-2.5202 l 4.2134,-1.0211 c 0.1895,0.3878 0.4652,0.7712 0.8271,1.1503 0.3619,0.3877 0.8487,0.7065 1.4605,0.9564 0.6204,0.2585 1.4001,0.3877 2.3393,0.3877 1.3269,0 2.4255,-0.3231 3.2957,-0.9693 0.8703,-0.6376 1.3054,-1.6888 1.3054,-3.1535 v -3.761 h -0.2327 c -0.2412,0.4825 -0.5945,0.9779 -1.0598,1.4863 -0.4566,0.5083 -1.0641,0.9348 -1.8223,1.2795 -0.7496,0.3446 -1.6931,0.517 -2.8304,0.517 -1.5251,0 -2.908,-0.3576 -4.1488,-1.0728 -1.2321,-0.7237 -2.2143,-1.8008 -2.9467,-3.2311 -0.7238,-1.4389 -1.0857,-3.2397 -1.0857,-5.4023 0,-2.18 0.3619,-4.0195 1.0857,-5.5188 0.7324,-1.5078 1.7189,-2.6495 2.9597,-3.4249 1.2407,-0.7841 2.6236,-1.1761 4.1487,-1.1761 1.1632,0 2.1196,0.1981 2.8692,0.5945 0.7582,0.3877 1.3614,0.8573 1.8094,1.4087 0.4481,0.5429 0.7884,1.0555 1.021,1.538 h 0.2585 v -3.2828 h 4.614 v 20.175 c 0,1.6974 -0.4049,3.1019 -1.2149,4.2134 -0.8099,1.1115 -1.9171,1.9429 -3.3215,2.4944 -1.4045,0.5514 -2.9985,0.8271 -4.782,0.8271 z m 0.0387,-11.8129 c 0.9909,0 1.8353,-0.2412 2.5332,-0.7237 0.6979,-0.4825 1.2278,-1.1761 1.5897,-2.0809 0.3619,-0.9047 0.5428,-1.9903 0.5428,-3.2569 0,-1.2494 -0.1809,-2.3436 -0.5428,-3.2828 -0.3533,-0.9392 -0.8789,-1.6672 -1.5768,-2.1842 -0.6893,-0.5256 -1.538,-0.7884 -2.5461,-0.7884 -1.0425,0 -1.9128,0.2714 -2.6107,0.8142 -0.6979,0.5429 -1.2235,1.2882 -1.5768,2.236 -0.3532,0.9391 -0.5299,2.0075 -0.5299,3.2052 0,1.2149 0.1767,2.279 0.5299,3.1923 0.3619,0.9047 0.8918,1.6113 1.5897,2.1196 0.7066,0.4998 1.5725,0.7496 2.5978,0.7496 z M 100.921,35 V 15.1481 H 105.6 V 35 Z m 2.352,-22.6694 c -0.741,0 -1.378,-0.2455 -1.913,-0.7367 -0.534,-0.4997 -0.801,-1.0985 -0.801,-1.79645 0,-0.70653 0.267,-1.30536 0.801,-1.79649 0.535,-0.49974 1.172,-0.74961 1.913,-0.74961 0.75,0 1.387,0.24987 1.913,0.74961 0.534,0.49113 0.801,1.08996 0.801,1.79649 0,0.69795 -0.267,1.29675 -0.801,1.79645 -0.526,0.4912 -1.163,0.7367 -1.913,0.7367 z m 16.687,2.8175 v 3.6189 h -11.413 v -3.6189 z m -8.595,-4.7561 h 4.679 v 18.6369 c 0,0.629 0.094,1.1115 0.284,1.4476 0.198,0.3274 0.457,0.5514 0.775,0.672 0.319,0.1207 0.672,0.181 1.06,0.181 0.293,0 0.56,-0.0216 0.802,-0.0646 0.249,-0.0431 0.439,-0.0819 0.568,-0.1164 l 0.789,3.6576 c -0.25,0.0862 -0.608,0.181 -1.073,0.2844 -0.457,0.1034 -1.017,0.1637 -1.68,0.1809 -1.172,0.0345 -2.228,-0.1422 -3.167,-0.5299 -0.939,-0.3963 -1.684,-1.0081 -2.236,-1.8353 -0.543,-0.8271 -0.81,-1.8611 -0.801,-3.1018 z m 17.856,25.0087 c -1.258,0 -2.391,-0.2241 -3.399,-0.6721 -0.999,-0.4567 -1.792,-1.1287 -2.378,-2.0162 -0.577,-0.8875 -0.866,-1.9818 -0.866,-3.2828 0,-1.1201 0.207,-2.0464 0.62,-2.7788 0.414,-0.7323 0.978,-1.3182 1.694,-1.7577 0.715,-0.4394 1.52,-0.7711 2.416,-0.9951 0.905,-0.2327 1.84,-0.4007 2.805,-0.5041 1.163,-0.1206 2.107,-0.2283 2.83,-0.3231 0.724,-0.1034 1.25,-0.2585 1.577,-0.4653 0.336,-0.2154 0.504,-0.5471 0.504,-0.9952 v -0.0775 c 0,-0.9736 -0.288,-1.7276 -0.866,-2.2618 -0.577,-0.5342 -1.408,-0.8013 -2.494,-0.8013 -1.146,0 -2.055,0.2499 -2.727,0.7496 -0.664,0.4998 -1.112,1.09 -1.344,1.7707 l -4.369,-0.6204 c 0.345,-1.2063 0.914,-2.2144 1.706,-3.0243 0.793,-0.8186 1.762,-1.4303 2.908,-1.8353 1.146,-0.4135 2.413,-0.6203 3.8,-0.6203 0.956,0 1.909,0.112 2.856,0.336 0.948,0.224 1.814,0.5945 2.598,1.1115 0.784,0.5083 1.413,1.202 1.887,2.0808 0.483,0.8789 0.724,1.9774 0.724,3.2957 V 35 h -4.498 v -2.727 h -0.155 c -0.284,0.5514 -0.685,1.0684 -1.202,1.5509 -0.508,0.4739 -1.15,0.8573 -1.926,1.1503 -0.766,0.2843 -1.667,0.4265 -2.701,0.4265 z m 1.215,-3.4379 c 0.939,0 1.753,-0.1853 2.443,-0.5558 0.689,-0.3791 1.219,-0.8788 1.589,-1.4992 0.38,-0.6204 0.569,-1.2968 0.569,-2.0291 v -2.3393 c -0.146,0.1206 -0.396,0.2326 -0.749,0.336 -0.345,0.1034 -0.733,0.1939 -1.164,0.2714 -0.43,0.0775 -0.857,0.1465 -1.279,0.2068 -0.422,0.0603 -0.789,0.112 -1.099,0.1551 -0.698,0.0948 -1.322,0.2499 -1.874,0.4653 -0.551,0.2154 -0.986,0.5169 -1.305,0.9047 -0.319,0.3791 -0.478,0.8702 -0.478,1.4733 0,0.8617 0.314,1.5122 0.943,1.9516 0.629,0.4395 1.43,0.6592 2.404,0.6592 z M 148.722,8.53086 V 35 h -4.679 V 8.53086 Z m 27.703,7.27644 c -0.121,-1.1287 -0.629,-2.0076 -1.526,-2.6366 -0.887,-0.629 -2.042,-0.9435 -3.463,-0.9435 -1,0 -1.857,0.1508 -2.572,0.4524 -0.715,0.3016 -1.263,0.7108 -1.642,1.2278 -0.379,0.517 -0.573,1.1072 -0.581,1.7706 0,0.5515 0.125,1.0297 0.375,1.4347 0.258,0.4049 0.607,0.7496 1.046,1.0339 0.44,0.2757 0.927,0.5084 1.461,0.6979 0.534,0.1896 1.073,0.349 1.615,0.4782 l 2.482,0.6204 c 0.999,0.2326 1.96,0.5471 2.882,0.9435 0.931,0.3963 1.762,0.8961 2.494,1.4992 0.741,0.6031 1.327,1.3312 1.758,2.1842 0.431,0.853 0.646,1.8525 0.646,2.9985 0,1.5509 -0.396,2.9166 -1.189,4.097 -0.792,1.1718 -1.938,2.0895 -3.438,2.7529 -1.49,0.6548 -3.295,0.9823 -5.415,0.9823 -2.059,0 -3.847,-0.3188 -5.363,-0.9564 -1.508,-0.6377 -2.689,-1.5682 -3.542,-2.7917 -0.844,-1.2235 -1.301,-2.7141 -1.37,-4.4719 h 4.718 c 0.069,0.922 0.353,1.6888 0.853,2.3006 0.499,0.6117 1.15,1.0684 1.951,1.37 0.81,0.3015 1.715,0.4523 2.714,0.4523 1.043,0 1.956,-0.1551 2.74,-0.4653 0.793,-0.3188 1.413,-0.7582 1.861,-1.3182 0.449,-0.5687 0.677,-1.2322 0.685,-1.9904 -0.008,-0.6893 -0.211,-1.258 -0.607,-1.706 -0.396,-0.4567 -0.952,-0.8358 -1.667,-1.1374 -0.707,-0.3101 -1.534,-0.5859 -2.482,-0.8271 l -3.011,-0.7755 c -2.18,-0.56 -3.903,-1.4087 -5.17,-2.5461 -1.258,-1.1459 -1.887,-2.6667 -1.887,-4.5623 0,-1.5595 0.422,-2.9252 1.267,-4.097 0.853,-1.1718 2.012,-2.08085 3.476,-2.72707 1.465,-0.65483 3.124,-0.98225 4.976,-0.98225 1.879,0 3.524,0.32742 4.937,0.98225 1.422,0.64622 2.538,1.54667 3.348,2.70117 0.81,1.146 1.228,2.4643 1.254,3.9549 z m 18.592,-0.6592 v 3.6189 h -11.412 v -3.6189 z m -8.594,-4.7561 h 4.678 v 18.6369 c 0,0.629 0.095,1.1115 0.285,1.4476 0.198,0.3274 0.456,0.5514 0.775,0.672 0.319,0.1207 0.672,0.181 1.06,0.181 0.293,0 0.56,-0.0216 0.801,-0.0646 0.25,-0.0431 0.44,-0.0819 0.569,-0.1164 l 0.788,3.6576 c -0.25,0.0862 -0.607,0.181 -1.072,0.2844 -0.457,0.1034 -1.017,0.1637 -1.681,0.1809 -1.171,0.0345 -2.227,-0.1422 -3.166,-0.5299 -0.939,-0.3963 -1.685,-1.0081 -2.236,-1.8353 -0.543,-0.8271 -0.81,-1.8611 -0.801,-3.1018 z m 20.589,24.9957 c -1.938,0 -3.618,-0.4265 -5.04,-1.2795 -1.422,-0.853 -2.525,-2.0463 -3.309,-3.58 -0.775,-1.5337 -1.163,-3.3259 -1.163,-5.3766 0,-2.0506 0.388,-3.8471 1.163,-5.3894 0.784,-1.5424 1.887,-2.74 3.309,-3.593 1.422,-0.853 3.102,-1.2795 5.04,-1.2795 1.939,0 3.619,0.4265 5.041,1.2795 1.422,0.853 2.52,2.0506 3.296,3.593 0.784,1.5423 1.176,3.3388 1.176,5.3894 0,2.0507 -0.392,3.8429 -1.176,5.3766 -0.776,1.5337 -1.874,2.727 -3.296,3.58 -1.422,0.853 -3.102,1.2795 -5.041,1.2795 z m 0.026,-3.748 c 1.051,0 1.93,-0.2887 2.637,-0.866 0.706,-0.5859 1.232,-1.37 1.577,-2.3522 0.353,-0.9823 0.529,-2.0765 0.529,-3.2828 0,-1.2149 -0.176,-2.3135 -0.529,-3.2957 -0.345,-0.9909 -0.871,-1.7793 -1.577,-2.3652 -0.707,-0.5859 -1.586,-0.8788 -2.637,-0.8788 -1.077,0 -1.973,0.2929 -2.688,0.8788 -0.707,0.5859 -1.236,1.3743 -1.59,2.3652 -0.344,0.9822 -0.517,2.0808 -0.517,3.2957 0,1.2063 0.173,2.3005 0.517,3.2828 0.354,0.9822 0.883,1.7663 1.59,2.3522 0.715,0.5773 1.611,0.866 2.688,0.866 z M 220.132,35 V 15.1481 h 4.536 v 3.3087 h 0.207 c 0.362,-1.146 0.982,-2.0291 1.861,-2.6495 0.888,-0.629 1.9,-0.9435 3.037,-0.9435 0.259,0 0.548,0.0129 0.866,0.0388 0.328,0.0172 0.599,0.0474 0.815,0.0905 v 4.3038 c -0.199,-0.069 -0.513,-0.1293 -0.944,-0.181 -0.422,-0.0603 -0.831,-0.0904 -1.228,-0.0904 -0.853,0 -1.62,0.1852 -2.3,0.5557 -0.672,0.3619 -1.202,0.8659 -1.59,1.5122 -0.388,0.6462 -0.582,1.3915 -0.582,2.2359 V 35 Z m 22.037,0.3877 c -1.99,0 -3.709,-0.4135 -5.157,-1.2407 -1.439,-0.8358 -2.546,-2.0162 -3.321,-3.5413 -0.776,-1.5337 -1.164,-3.3388 -1.164,-5.4153 0,-2.0421 0.388,-3.8342 1.164,-5.3765 0.784,-1.551 1.878,-2.7573 3.282,-3.6189 1.405,-0.8702 3.055,-1.3053 4.95,-1.3053 1.224,0 2.379,0.1981 3.464,0.5945 1.094,0.3877 2.06,0.9909 2.895,1.8094 0.845,0.8185 1.508,1.8611 1.991,3.1277 0.482,1.258 0.723,2.7572 0.723,4.4977 v 1.4346 H 234.725 V 23.2 h 11.787 c -0.009,-0.8961 -0.203,-1.6931 -0.582,-2.391 -0.379,-0.7065 -0.909,-1.2623 -1.59,-1.6672 -0.672,-0.405 -1.456,-0.6075 -2.352,-0.6075 -0.956,0 -1.796,0.2327 -2.52,0.698 -0.724,0.4566 -1.288,1.0598 -1.693,1.8094 -0.397,0.741 -0.599,1.5552 -0.608,2.4427 v 2.7529 c 0,1.1545 0.211,2.1454 0.634,2.9726 0.422,0.8185 1.012,1.4475 1.77,1.8869 0.758,0.4308 1.646,0.6463 2.663,0.6463 0.68,0 1.296,-0.0948 1.848,-0.2844 0.551,-0.1982 1.029,-0.4868 1.434,-0.8659 0.405,-0.3791 0.711,-0.8487 0.918,-1.4088 l 4.369,0.4912 c -0.276,1.1545 -0.802,2.1626 -1.577,3.0243 -0.767,0.853 -1.749,1.5164 -2.947,1.9903 -1.198,0.4653 -2.568,0.6979 -4.11,0.6979 z"
             fill="#c92071"
             id="path2" /></g></g></g></g></svg>
